{"glyphs":{"0":{"ha":1000,"x_min":75,"x_max":921,"o":"m 75 507 q 203 892 75 750 q 497 1022 321 1022 q 791 892 674 1022 q 847 815 822 859 q 888 724 872 771 q 913 623 905 677 q 921 507 921 568 q 794 119 921 262 q 729 62 764 87 q 659 23 695 38 q 582 0 623 7 q 497 -8 540 -8 q 203 119 320 -8 q 75 507 75 263 m 741 505 q 731 613 741 566 q 704 699 722 661 q 657 766 686 736 q 497 836 591 836 q 411 820 448 836 q 338 766 374 803 q 256 505 256 678 q 339 244 256 332 q 498 176 403 176 q 585 193 546 176 q 659 244 624 210 q 741 505 741 333 z "},"1":{"ha":528,"x_min":75,"x_max":389,"o":"m 215 755 l 75 755 l 75 900 l 109 908 q 168 936 149 922 q 232 1014 232 981 l 389 1014 l 389 0 l 215 0 l 215 755 z "},"2":{"ha":993,"x_min":83,"x_max":901,"o":"m 293 464 q 386 525 327 492 q 504 578 446 558 q 595 607 541 591 q 670 636 648 624 q 703 668 692 648 q 714 724 714 688 q 647 812 714 785 q 484 839 580 839 q 330 806 410 838 q 207 725 251 774 l 86 860 q 173 927 109 889 q 321 994 237 966 q 481 1022 406 1022 q 693 990 603 1022 q 832 896 783 958 q 899 710 899 814 q 874 591 899 641 q 812 510 850 541 q 730 456 775 479 q 634 420 703 441 q 529 387 565 399 q 460 353 494 375 q 362 265 403 316 q 310 178 321 214 l 901 178 l 901 0 l 83 0 q 103 155 83 73 q 172 321 121 239 q 293 464 222 404 z "},"3":{"ha":997,"x_min":83,"x_max":905,"o":"m 288 757 l 157 882 q 199 922 170 899 q 261 964 229 945 q 498 1026 374 1026 q 664 1002 596 1026 q 781 925 732 977 q 861 746 861 840 q 850 653 861 694 q 825 587 838 612 q 804 554 812 562 q 840 517 817 545 q 884 439 863 490 q 905 319 905 388 q 793 97 905 193 q 498 -5 672 -3 q 187 103 317 -3 q 83 236 130 151 l 241 332 q 284 275 250 311 q 375 211 319 239 q 498 182 432 182 q 557 187 530 182 q 608 203 585 193 q 656 229 631 213 q 699 273 684 248 q 714 326 714 299 q 606 453 714 429 q 556 461 580 458 q 517 465 532 464 q 498 465 503 465 l 498 635 q 583 636 555 635 q 638 650 619 640 q 666 683 658 661 q 673 743 673 705 q 655 785 673 760 q 598 829 637 810 q 498 848 559 848 q 363 815 419 848 q 288 757 308 782 z "},"4":{"ha":1071,"x_min":64,"x_max":999,"o":"m 64 203 l 64 358 l 663 1014 l 846 1014 l 846 372 l 999 372 l 999 203 l 848 203 l 848 0 l 665 0 l 665 203 l 64 203 m 321 376 l 667 376 l 667 750 l 321 376 z "},"5":{"ha":970,"x_min":64,"x_max":878,"o":"m 269 476 l 104 529 l 126 1014 l 782 1014 l 782 840 l 301 840 l 294 671 q 501 711 420 711 q 768 614 671 711 q 878 351 878 503 q 758 87 878 207 q 517 -7 662 -7 q 405 -1 453 -5 q 300 15 356 3 q 197 41 245 26 q 64 100 112 70 l 143 267 q 220 231 161 254 q 354 191 280 208 q 485 174 428 174 q 650 231 604 174 q 696 359 696 288 q 676 435 696 395 q 616 502 657 474 q 517 529 576 529 q 391 517 437 529 q 269 476 344 505 z "},"6":{"ha":979,"x_min":75,"x_max":888,"o":"m 888 309 q 810 102 888 187 q 498 -8 707 -8 q 307 22 389 -8 q 170 115 224 53 q 75 401 75 222 q 146 677 75 545 q 200 767 171 726 q 268 843 230 807 q 489 979 361 935 q 664 1014 589 1014 l 720 1013 l 720 840 q 631 833 679 840 q 481 787 541 822 q 338 657 391 735 q 313 606 322 635 q 400 624 338 614 q 511 633 469 633 q 745 574 646 633 q 888 309 888 485 m 705 310 q 625 427 705 395 q 486 447 570 447 q 332 403 387 447 q 286 309 286 363 q 296 259 286 279 q 328 218 305 239 q 488 172 380 172 q 656 211 602 172 q 705 310 705 246 z "},"7":{"ha":946,"x_min":64,"x_max":878,"o":"m 64 829 l 64 1014 l 878 1014 l 878 851 q 786 728 876 851 q 697 586 739 661 q 623 431 655 510 q 588 330 601 375 q 565 236 574 286 q 550 125 555 186 l 550 0 l 366 0 q 368 140 366 77 q 378 252 372 204 q 396 352 385 300 q 424 450 408 404 q 471 569 446 517 q 541 696 496 621 q 595 781 573 749 q 629 829 618 814 l 64 829 z "},"8":{"ha":1035,"x_min":83,"x_max":911,"o":"m 498 -8 q 176 106 288 -8 q 83 336 83 203 q 146 518 83 429 q 178 558 166 546 q 207 581 190 570 q 168 628 190 595 q 131 747 131 682 q 199 921 131 849 q 322 996 247 970 q 498 1021 397 1021 q 623 1009 568 1021 q 722 976 678 998 q 799 921 766 954 q 868 749 868 846 q 829 629 868 689 q 813 606 821 615 q 803 593 806 597 q 797 587 800 590 q 790 581 793 584 q 850 514 817 563 q 911 335 911 427 q 818 106 911 203 q 498 -8 705 -8 m 498 176 q 688 237 624 176 q 734 328 734 280 q 690 432 734 390 q 500 492 627 492 q 309 432 370 492 q 261 328 261 389 q 309 237 261 281 q 498 176 374 176 m 498 663 q 657 696 608 663 q 692 751 692 723 q 656 806 692 779 q 498 840 604 840 q 342 806 390 840 q 307 751 307 781 q 340 696 307 721 q 498 663 390 663 z "},"9":{"ha":956,"x_min":64,"x_max":876,"o":"m 64 703 q 142 909 64 823 q 453 1019 245 1019 q 782 896 673 1019 q 876 610 876 789 q 806 334 876 467 q 684 168 758 238 q 463 32 588 76 q 288 -3 362 -3 l 232 -1 l 233 171 q 321 178 273 171 q 471 224 411 189 q 615 353 562 278 q 640 406 631 377 q 553 387 610 395 q 440 378 496 378 q 208 437 302 378 q 64 703 64 528 m 245 701 q 326 585 245 617 q 467 564 383 564 q 621 608 566 564 q 667 703 667 648 q 625 793 667 756 q 464 839 572 839 q 296 800 348 839 q 258 759 270 782 q 245 701 245 736 z "},"\"":{"ha":1042,"x_min":174,"x_max":868,"o":"m 174 0 l 174 868 l 868 868 l 868 0 l 174 0 m 846 22 l 846 846 l 196 846 l 196 22 l 846 22 z "},"_":{"ha":1042,"x_min":174,"x_max":868,"o":"m 174 0 l 174 868 l 868 868 l 868 0 l 174 0 m 846 22 l 846 846 l 196 846 l 196 22 l 846 22 z "},"`":{"ha":1042,"x_min":174,"x_max":868,"o":"m 174 0 l 174 868 l 868 868 l 868 0 l 174 0 m 846 22 l 846 846 l 196 846 l 196 22 l 846 22 z "},"{":{"ha":1042,"x_min":174,"x_max":868,"o":"m 174 0 l 174 868 l 868 868 l 868 0 l 174 0 m 846 22 l 846 846 l 196 846 l 196 22 l 846 22 z "},":":{"ha":696,"x_min":135,"x_max":379,"o":"m 135 654 q 151 715 135 687 q 196 760 168 744 q 257 777 224 777 q 317 760 289 777 q 362 716 346 744 q 379 654 379 688 q 362 593 379 621 q 317 549 346 566 q 257 533 289 533 q 196 549 224 533 q 151 594 168 566 q 135 654 135 622 m 135 113 q 151 174 135 145 q 196 218 168 202 q 257 235 224 235 q 317 218 289 235 q 362 174 346 202 q 379 113 379 146 q 362 52 379 80 q 317 8 346 24 q 257 -8 289 -8 q 196 8 224 -8 q 151 53 168 24 q 135 113 135 81 z "},";":{"ha":694,"x_min":135,"x_max":378,"o":"m 135 644 q 151 705 135 677 q 196 750 168 733 q 256 766 224 766 q 317 750 288 766 q 361 705 345 733 q 378 644 378 677 q 361 584 378 612 q 317 539 345 555 q 256 522 289 522 q 195 539 223 522 q 151 584 168 555 q 135 644 135 612 m 375 111 q 337 -18 375 37 q 231 -110 299 -73 l 180 -31 q 235 1 229 -3 q 203 8 222 1 q 171 26 185 14 q 136 104 136 63 q 170 188 136 153 q 254 224 204 224 q 341 190 307 224 q 375 111 375 157 z "},"?":{"ha":646,"x_min":182,"x_max":464,"o":"m 271 315 q 222 610 260 336 q 182 954 182 884 q 221 1047 182 1019 q 263 1066 237 1059 q 322 1072 289 1072 q 422 1047 387 1072 q 464 954 464 1019 q 453 836 464 919 q 422 610 443 753 q 374 315 383 339 q 358 292 364 298 q 322 278 347 278 q 285 292 298 278 q 271 315 278 301 m 201 117 q 237 202 201 167 q 322 237 273 237 q 383 221 355 237 q 428 177 412 205 q 444 117 444 149 q 428 56 444 84 q 383 11 412 27 q 322 -5 355 -5 q 262 11 290 -5 q 218 56 234 27 q 201 117 201 84 z "},",":{"ha":509,"x_min":135,"x_max":374,"o":"m 374 111 q 336 -18 374 37 q 229 -110 298 -73 l 179 -31 q 233 1 228 -3 q 202 8 220 1 q 170 26 183 14 q 135 104 135 63 q 169 188 135 153 q 253 224 203 224 q 339 190 305 224 q 374 111 374 157 z "},"-":{"ha":918,"x_min":199,"x_max":720,"o":"m 720 461 l 720 275 l 199 275 l 199 461 l 720 461 z "},"'":{"ha":510,"x_min":135,"x_max":375,"o":"m 375 914 q 229 693 375 774 l 179 772 q 233 804 229 801 q 202 811 221 804 q 171 829 183 817 q 135 907 135 867 q 151 967 135 939 q 195 1010 167 994 q 254 1026 222 1026 q 341 992 307 1026 q 375 914 375 959 z "},"A":{"ha":1192,"x_min":79,"x_max":1112,"o":"m 504 1014 l 690 1014 l 1112 0 l 908 0 l 810 233 l 385 233 l 285 0 l 79 0 l 504 1014 m 730 428 l 595 736 l 461 428 l 730 428 z "},"B":{"ha":1202,"x_min":220,"x_max":1036,"o":"m 713 0 l 220 0 l 220 1013 l 718 1013 q 925 932 840 1013 q 1014 737 1014 845 q 991 632 1014 685 q 932 539 968 579 q 1036 304 1036 443 q 1014 189 1036 240 q 945 92 992 138 q 713 0 850 0 m 411 632 l 703 632 q 789 655 757 632 q 822 725 822 679 q 790 794 822 771 q 703 818 758 818 l 411 818 l 411 632 m 412 189 l 710 189 q 808 228 768 189 q 847 315 847 264 q 808 406 847 369 q 710 443 771 443 l 412 443 l 412 189 z "},"C":{"ha":1101,"x_min":139,"x_max":962,"o":"m 787 313 l 950 216 q 882 126 919 167 q 799 55 844 85 q 698 8 753 25 q 585 -8 644 -8 q 406 28 491 -8 q 258 131 321 64 q 166 292 194 201 q 139 505 139 383 q 275 884 139 737 q 585 1019 399 1019 q 812 950 694 1019 q 871 901 842 932 q 921 838 899 871 q 962 766 943 804 l 799 686 q 709 789 763 751 q 585 828 656 828 q 407 751 479 828 q 329 500 329 669 q 347 355 329 416 q 404 252 364 294 q 583 179 473 179 q 700 216 648 179 q 787 313 751 254 z "},"D":{"ha":1168,"x_min":220,"x_max":1029,"o":"m 515 0 l 220 0 l 220 1014 l 515 1014 q 888 865 734 1014 q 969 759 938 815 q 1015 639 1000 703 q 1029 505 1029 575 q 888 147 1029 285 q 717 36 810 73 q 515 0 623 0 m 407 191 l 528 191 q 614 202 572 191 q 694 235 656 214 q 757 283 731 257 q 820 381 802 329 q 838 507 838 434 q 820 629 838 576 q 757 729 802 681 q 694 779 731 757 q 614 812 657 800 q 528 823 572 823 l 407 823 l 407 191 z "},"E":{"ha":1116,"x_min":220,"x_max":977,"o":"m 411 444 l 411 189 l 977 189 l 977 0 l 220 0 l 220 1014 l 956 1014 l 956 823 l 411 823 l 411 632 l 728 632 l 728 444 l 411 444 z "},"F":{"ha":1025,"x_min":220,"x_max":961,"o":"m 411 429 l 411 0 l 220 0 l 220 1002 l 961 1002 l 961 811 l 411 811 l 411 615 l 722 615 l 722 429 l 411 429 z "},"G":{"ha":1088,"x_min":139,"x_max":949,"o":"m 753 338 l 578 338 l 578 517 l 949 517 l 949 351 q 920 236 949 298 q 840 118 891 173 q 708 28 788 64 q 562 -7 629 -7 q 261 129 375 -5 q 193 233 221 174 q 152 359 165 292 q 139 507 139 427 q 262 885 139 740 q 396 986 321 953 q 561 1019 470 1019 q 784 949 685 1019 q 935 745 884 878 l 754 685 q 717 748 745 709 q 673 796 689 786 q 555 833 618 833 q 469 813 512 833 q 397 760 425 792 q 345 653 363 719 q 326 507 326 587 q 345 360 326 422 q 399 256 363 298 q 555 183 458 183 q 626 195 595 183 q 692 239 656 208 q 753 338 745 288 z "},"H":{"ha":1260,"x_min":220,"x_max":1040,"o":"m 848 435 l 411 435 l 411 0 l 220 0 l 220 1014 l 411 1014 l 411 625 l 848 625 l 848 1014 l 1040 1014 l 1040 0 l 848 0 l 848 435 z "},"I":{"ha":625,"x_min":220,"x_max":406,"o":"m 406 0 l 220 0 l 220 1014 l 406 1014 l 406 0 z "},"J":{"ha":1008,"x_min":64,"x_max":822,"o":"m 64 285 l 240 336 q 315 222 263 258 q 437 182 374 182 q 514 199 475 182 q 579 241 554 216 q 622 312 609 273 q 635 410 635 352 l 635 1014 l 822 1014 l 822 397 q 810 283 822 335 q 775 192 798 232 q 711 110 751 151 q 431 -5 602 -5 q 193 83 302 -5 q 113 172 144 123 q 64 285 82 220 z "},"K":{"ha":1166,"x_min":220,"x_max":1069,"o":"m 593 526 l 412 319 l 412 0 l 220 0 l 220 1014 l 408 1014 l 408 603 l 777 1014 l 1028 1014 l 734 682 l 1069 0 l 856 0 l 593 526 z "},"L":{"ha":1074,"x_min":220,"x_max":977,"o":"m 406 1014 l 406 186 l 977 186 l 977 0 l 220 0 l 220 1014 l 406 1014 z "},"M":{"ha":1394,"x_min":220,"x_max":1175,"o":"m 697 432 l 981 1014 l 1175 1014 l 1175 0 l 982 0 l 982 570 l 697 0 l 412 570 l 412 0 l 220 0 l 220 1014 l 414 1014 l 697 432 z "},"N":{"ha":1263,"x_min":220,"x_max":1043,"o":"m 857 0 l 411 660 l 411 0 l 220 0 l 220 1014 l 406 1014 l 851 351 l 851 1014 l 1043 1014 l 1043 0 l 857 0 z "}," ":{"ha":464,"x_min":0,"x_max":0,"o":""},"O":{"ha":1120,"x_min":139,"x_max":981,"o":"m 981 504 q 951 288 981 382 q 859 123 921 194 q 724 24 800 57 q 557 -8 648 -8 q 393 25 466 -8 q 260 126 321 58 q 169 292 198 199 q 139 504 139 385 q 170 718 139 624 q 261 882 200 812 q 394 986 321 952 q 557 1019 467 1019 q 671 1004 618 1019 q 768 960 724 989 q 854 885 812 931 q 981 504 979 741 m 557 829 q 467 812 505 829 q 396 757 429 795 q 323 504 323 669 q 397 252 323 336 q 442 211 420 226 q 493 188 465 196 q 557 180 522 180 q 649 197 612 180 q 717 249 687 214 q 772 353 753 288 q 791 504 791 418 q 772 655 791 589 q 717 761 753 721 q 649 812 687 795 q 557 829 612 829 z "},"P":{"ha":1157,"x_min":220,"x_max":1047,"o":"m 220 1014 l 722 1014 q 950 922 859 1014 q 1047 700 1047 825 q 1023 581 1047 635 q 953 478 999 526 q 730 385 864 385 l 407 385 l 407 0 l 220 0 l 220 1014 m 407 574 l 713 574 q 807 611 770 574 q 847 699 847 649 q 807 785 847 749 q 713 822 770 822 l 407 822 l 407 574 z "},"Q":{"ha":1129,"x_min":139,"x_max":990,"o":"m 742 -66 l 689 9 q 637 -3 660 -1 q 557 -7 614 -5 q 472 2 510 -5 q 395 27 434 9 q 323 70 355 45 q 261 127 291 94 q 139 507 139 271 q 152 652 139 584 q 191 780 164 721 q 258 885 218 838 q 559 1022 375 1022 q 864 886 745 1022 q 990 505 988 745 q 951 268 990 372 q 848 103 913 161 l 895 28 l 742 -66 m 672 370 l 739 268 q 784 366 770 307 q 798 510 798 425 q 718 762 798 670 q 649 815 687 799 q 555 832 611 832 q 467 815 503 832 q 399 760 431 798 q 326 505 326 675 q 403 254 326 342 q 546 184 454 194 q 582 186 567 184 l 525 279 l 672 370 z "},"R":{"ha":1187,"x_min":220,"x_max":1048,"o":"m 854 418 l 1048 0 l 842 0 l 661 386 l 411 386 l 411 0 l 220 0 l 220 1014 l 705 1014 q 829 991 772 1014 q 932 924 887 968 q 1028 707 1028 829 q 854 418 1028 522 m 411 578 l 704 578 q 799 614 761 578 q 838 696 838 654 q 799 782 838 742 q 704 822 754 822 l 411 822 l 411 578 z "},"S":{"ha":1057,"x_min":118,"x_max":939,"o":"m 175 732 q 211 868 175 812 q 302 957 246 924 q 419 1003 358 989 q 541 1017 481 1017 q 711 985 635 1017 q 832 918 787 954 q 913 842 877 882 l 771 717 q 686 786 743 749 q 547 827 628 823 q 419 802 471 827 q 367 724 367 777 q 387 672 367 690 q 450 642 407 654 q 582 612 493 631 q 709 584 661 597 q 812 541 758 571 q 903 453 867 510 q 939 307 939 396 q 878 131 939 201 q 726 27 817 60 q 543 -5 635 -5 q 421 8 481 -5 q 307 48 361 22 q 207 110 253 74 q 118 197 160 146 l 267 311 q 371 226 299 269 q 524 180 444 184 q 683 213 616 180 q 750 300 750 245 q 735 356 750 336 q 690 389 720 376 q 607 414 660 402 q 490 440 553 426 q 364 476 410 460 q 273 523 318 491 q 201 605 228 554 q 175 732 175 655 z "},"T":{"ha":933,"x_min":87,"x_max":846,"o":"m 846 822 l 559 822 l 559 0 l 367 0 l 367 822 l 87 822 l 87 1014 l 846 1014 l 846 822 z "},"U":{"ha":1193,"x_min":186,"x_max":1007,"o":"m 186 403 l 186 1014 l 375 1014 l 375 403 q 399 306 375 357 q 473 217 423 254 q 596 180 523 180 q 719 216 670 180 q 791 303 768 252 q 815 403 815 355 l 815 1014 l 1007 1014 l 1007 403 q 993 294 1007 347 q 952 194 979 241 q 884 107 924 146 q 596 -9 765 -9 q 492 4 544 -9 q 392 45 439 18 q 309 109 344 73 q 241 195 269 148 q 200 294 214 243 q 186 403 186 345 z "},"V":{"ha":1090,"x_min":72,"x_max":1018,"o":"m 812 1014 l 1018 1014 l 650 0 l 452 0 l 72 1014 l 278 1014 l 547 282 l 812 1014 z "},"W":{"ha":1275,"x_min":97,"x_max":1178,"o":"m 636 591 l 475 0 l 281 0 l 97 1014 l 290 1014 l 399 463 l 550 1014 l 722 1014 l 873 460 l 983 1014 l 1178 1014 l 993 0 l 799 0 l 636 591 z "},"X":{"ha":1099,"x_min":97,"x_max":1002,"o":"m 549 347 l 326 0 l 97 0 l 433 533 l 131 1014 l 351 1014 l 546 708 l 743 1014 l 961 1014 l 663 533 l 1002 0 l 772 0 l 549 347 z "},"Y":{"ha":1171,"x_min":64,"x_max":1107,"o":"m 490 0 l 490 404 l 64 1014 l 293 1014 l 586 599 l 879 1014 l 1107 1014 l 681 406 l 681 0 l 490 0 z "},"Z":{"ha":1192,"x_min":182,"x_max":1010,"o":"m 1003 811 l 435 191 l 1010 191 l 1010 0 l 182 0 l 182 197 l 755 822 l 182 822 l 182 1014 l 1003 1014 l 1003 811 z "},"[":{"ha":914,"x_min":358,"x_max":745,"o":"m 597 212 q 745 -41 648 79 l 646 -41 q 435 203 508 59 q 358 526 358 351 q 433 844 358 694 q 633 1088 506 987 l 722 1088 q 587 832 636 970 q 538 528 538 688 q 597 212 538 363 z "},"]":{"ha":555,"x_min":170,"x_max":555,"o":"m 317 833 q 170 1088 264 965 l 268 1088 q 351 1018 312 1055 q 421 937 389 980 q 479 843 452 895 q 555 519 555 694 q 537 355 555 434 q 481 201 518 276 q 281 -41 408 58 l 192 -41 q 325 215 278 76 q 376 518 376 364 q 317 833 376 683 z "},"a":{"ha":932,"x_min":102,"x_max":749,"o":"m 545 0 l 545 31 q 376 -7 478 -5 q 301 2 335 -5 q 238 26 268 10 q 179 66 208 43 q 120 149 138 103 q 102 252 102 195 q 120 353 102 307 q 179 436 138 399 q 278 496 223 475 q 393 518 332 518 q 479 512 446 518 q 546 492 513 507 q 520 565 546 542 q 432 589 494 589 q 328 571 372 589 q 241 528 284 553 l 155 676 q 273 736 216 711 q 444 766 348 764 q 562 752 508 766 q 656 708 616 738 q 749 539 749 640 l 749 0 l 545 0 m 543 207 l 543 314 q 486 345 515 335 q 408 354 456 354 q 338 333 373 354 q 302 264 302 312 q 337 193 302 216 q 406 171 371 171 q 543 207 490 171 z "},"b":{"ha":951,"x_min":182,"x_max":846,"o":"m 382 1044 l 382 724 q 521 764 452 764 q 755 653 663 764 q 823 530 800 598 q 846 378 846 461 q 757 102 846 211 q 653 19 711 46 q 524 -8 595 -8 q 453 0 486 -8 q 386 26 420 7 l 386 0 l 182 0 l 182 965 l 382 1044 m 390 529 l 390 225 q 436 198 414 206 q 490 189 458 189 q 600 235 563 189 q 636 378 636 281 q 622 465 636 422 q 574 537 607 508 q 490 566 542 566 q 390 529 433 566 z "},"c":{"ha":880,"x_min":102,"x_max":771,"o":"m 770 599 l 631 453 q 567 536 610 503 q 475 570 524 569 q 353 518 396 570 q 309 376 309 460 q 358 231 309 280 q 476 184 406 184 q 570 218 529 184 q 631 304 612 252 l 771 154 q 641 32 718 74 q 471 -11 564 -11 q 210 98 314 -11 q 149 181 172 138 q 114 275 125 225 q 102 378 102 324 q 207 653 102 543 q 326 736 260 709 q 469 764 392 764 q 586 744 530 764 q 688 687 642 724 q 770 599 734 651 z "},"d":{"ha":947,"x_min":102,"x_max":765,"o":"m 567 724 l 567 978 l 765 1059 l 765 0 l 562 0 l 562 28 q 425 -8 499 -8 q 336 4 378 -8 q 256 41 294 16 q 191 102 219 66 q 102 378 102 209 q 191 653 102 543 q 428 764 283 764 q 567 724 500 764 m 557 225 l 557 528 q 457 567 513 567 q 350 519 389 567 q 311 376 311 472 q 351 235 311 283 q 457 187 391 187 q 557 225 514 187 z "},"e":{"ha":884,"x_min":102,"x_max":765,"o":"m 570 229 l 710 121 q 433 -8 588 -8 q 193 102 286 -8 q 102 378 102 210 q 195 653 102 543 q 436 764 289 764 q 677 650 585 764 q 745 531 724 595 q 765 371 765 467 l 765 323 l 307 323 q 351 212 313 260 q 393 182 368 193 q 437 171 418 171 q 570 229 516 171 m 315 482 l 553 482 q 507 558 539 533 q 435 583 475 583 q 362 558 395 583 q 315 482 329 533 z "},"f":{"ha":637,"x_min":97,"x_max":532,"o":"m 529 994 l 529 825 q 460 842 476 842 q 414 829 427 842 q 401 791 401 816 l 401 760 l 532 760 l 532 562 l 400 562 l 400 0 l 203 0 l 203 562 l 97 562 l 97 760 l 203 760 l 203 884 q 258 977 203 939 q 399 1015 313 1015 q 471 1007 426 1015 q 529 994 516 998 z "},"g":{"ha":943,"x_min":102,"x_max":761,"o":"m 562 29 q 414 -8 492 -8 q 290 18 342 -8 q 191 102 238 45 q 102 376 102 209 q 191 653 102 543 q 291 737 238 710 q 415 764 344 764 q 555 726 492 764 l 555 754 l 761 754 l 761 0 q 671 -240 761 -134 q 565 -326 625 -292 q 436 -371 505 -359 q 412 -316 428 -353 q 377 -237 395 -279 q 346 -164 359 -196 q 378 -165 355 -165 q 510 -113 463 -163 q 553 -48 543 -77 q 562 29 562 -18 m 557 233 l 557 528 q 454 567 513 567 q 345 518 382 567 q 307 386 307 469 q 345 251 307 303 q 454 199 383 199 q 557 233 516 199 z "},"h":{"ha":1025,"x_min":182,"x_max":843,"o":"m 182 0 l 182 965 l 385 1048 l 385 703 q 464 755 422 741 q 562 770 505 770 q 761 688 681 770 q 843 485 843 604 l 843 0 l 646 0 l 646 418 q 606 522 644 478 q 509 562 568 560 q 463 552 484 562 q 421 519 441 541 q 383 418 383 478 l 383 0 l 182 0 z "},"i":{"ha":583,"x_min":182,"x_max":401,"o":"m 389 0 l 192 0 l 192 750 l 389 750 l 389 0 m 182 896 q 214 974 182 941 q 292 1007 246 1007 q 370 974 338 1007 q 401 896 401 941 q 369 819 401 852 q 292 786 337 786 q 215 819 248 786 q 182 896 182 852 z "},"j":{"ha":600,"x_min":25,"x_max":418,"o":"m 406 750 l 406 0 q 379 -144 406 -76 q 301 -264 353 -212 q 25 -371 189 -371 l 25 -175 q 96 -162 64 -175 q 155 -122 127 -150 q 212 12 212 -66 l 212 750 l 406 750 m 197 897 q 230 975 197 942 q 309 1007 262 1007 q 352 998 332 1007 q 386 975 371 989 q 409 940 400 960 q 418 897 418 920 q 385 819 418 851 q 309 786 353 786 q 231 819 264 786 q 197 897 197 852 z "},"k":{"ha":957,"x_min":182,"x_max":851,"o":"m 637 510 l 844 0 l 627 0 l 489 340 l 385 214 l 385 0 l 182 0 l 182 965 l 382 1047 l 382 532 l 581 754 l 851 754 l 637 510 z "},"l":{"ha":561,"x_min":182,"x_max":379,"o":"m 379 0 l 182 0 l 182 961 l 379 1040 l 379 0 z "},"m":{"ha":1455,"x_min":182,"x_max":1274,"o":"m 383 754 l 383 704 q 559 765 446 765 q 675 742 620 765 q 768 669 730 720 q 863 743 808 720 q 990 766 918 766 q 1190 682 1103 766 q 1274 485 1274 601 l 1274 0 l 1072 0 l 1072 428 q 1035 529 1072 488 q 947 566 1000 566 q 863 529 897 566 q 827 428 827 490 l 827 0 l 625 0 l 625 428 q 589 530 625 494 q 510 564 557 564 q 422 530 456 564 q 385 428 385 492 l 385 0 l 182 0 l 182 754 l 383 754 z "},"n":{"ha":1031,"x_min":182,"x_max":848,"o":"m 383 418 l 383 0 l 182 0 l 182 754 l 383 754 l 383 710 q 564 766 455 766 q 671 743 616 766 q 766 681 726 720 q 848 486 848 603 l 848 0 l 648 0 l 648 418 q 608 532 648 490 q 567 562 587 553 q 515 570 547 570 q 419 530 459 570 q 383 418 383 493 z "},"o":{"ha":873,"x_min":102,"x_max":768,"o":"m 768 378 q 676 102 768 210 q 435 -8 585 -8 q 192 102 285 -8 q 102 378 102 208 q 192 653 102 544 q 435 764 286 764 q 676 653 584 764 q 745 530 722 598 q 768 378 768 461 m 436 578 q 380 563 402 578 q 338 517 358 549 q 314 455 321 490 q 306 376 306 420 q 313 298 306 333 q 338 236 321 264 q 364 202 350 216 q 395 182 378 189 q 436 175 412 175 q 492 190 469 175 q 533 236 514 204 q 567 376 567 294 q 533 517 567 459 q 492 563 515 548 q 436 578 469 578 z "},"p":{"ha":947,"x_min":182,"x_max":842,"o":"m 387 29 l 387 -180 l 182 -260 l 182 754 l 390 754 l 390 724 q 530 762 460 762 q 656 735 602 762 q 754 650 710 708 q 803 569 783 612 q 832 477 823 526 q 842 376 842 429 q 831 271 842 320 q 802 180 821 222 q 751 100 783 138 q 515 -8 660 -8 q 449 0 475 -8 q 387 29 422 8 m 390 530 l 390 236 q 435 205 415 215 q 488 196 456 196 q 565 219 532 196 q 616 283 598 241 q 633 383 633 326 q 623 462 633 427 q 594 522 613 497 q 548 558 574 546 q 488 571 522 571 q 435 561 455 571 q 390 530 415 551 z "},"q":{"ha":947,"x_min":102,"x_max":765,"o":"m 566 -265 l 566 32 q 427 -8 496 -8 q 192 103 283 -8 q 125 226 148 157 q 102 378 102 295 q 191 654 102 544 q 424 764 281 764 q 561 729 500 764 l 561 755 l 765 755 l 765 -186 l 566 -265 m 557 227 l 557 530 q 457 567 513 567 q 344 511 377 567 q 311 378 311 456 q 347 247 311 302 q 457 191 383 191 q 557 227 514 191 z "},"r":{"ha":730,"x_min":182,"x_max":689,"o":"m 689 711 l 623 496 q 605 515 617 502 q 583 536 593 528 q 553 549 572 543 q 505 554 535 554 q 424 518 461 554 q 386 419 386 480 l 386 0 l 182 0 l 182 754 l 385 754 l 385 704 q 469 750 416 734 q 570 760 501 760 q 689 711 640 751 z "},"s":{"ha":836,"x_min":83,"x_max":730,"o":"m 83 90 l 175 258 q 416 174 306 176 q 524 222 524 174 q 503 255 524 242 q 450 277 483 267 q 379 300 418 288 q 291 331 342 313 q 205 375 241 350 q 147 440 169 400 q 125 539 125 481 q 156 650 125 607 q 233 718 186 694 q 325 751 279 743 q 410 760 370 760 q 589 731 514 760 q 726 663 663 703 l 643 498 q 601 522 629 507 q 550 547 573 536 q 489 565 526 557 q 410 574 452 574 q 351 561 374 574 q 328 529 328 549 q 337 505 328 515 q 367 486 347 494 q 402 471 386 477 q 435 461 419 466 q 537 428 473 449 q 640 382 601 406 q 705 316 680 358 q 730 214 730 274 q 671 72 730 121 q 541 6 612 22 q 416 -9 470 -9 q 83 90 235 -9 z "},"t":{"ha":713,"x_min":83,"x_max":599,"o":"m 599 256 l 550 26 q 486 0 522 9 q 397 -8 451 -8 q 267 40 319 -8 q 212 163 212 93 l 212 568 l 83 568 l 83 758 l 210 758 l 210 937 l 415 1017 l 415 758 l 591 758 l 591 567 l 415 567 l 415 253 q 429 205 415 219 q 478 191 444 191 q 537 208 509 191 q 599 256 565 224 z "},"u":{"ha":1031,"x_min":182,"x_max":848,"o":"m 647 321 l 647 754 l 848 754 l 848 0 l 647 0 l 647 45 q 467 -12 574 -12 q 359 10 412 -12 q 264 74 305 33 q 182 268 182 153 l 182 754 l 382 754 l 382 321 q 421 223 382 261 q 514 184 461 184 q 607 223 567 184 q 647 321 647 261 z "},"v":{"ha":939,"x_min":83,"x_max":851,"o":"m 851 753 l 571 0 l 364 0 l 83 753 l 296 753 l 464 302 l 637 753 l 851 753 z "},"w":{"ha":1185,"x_min":97,"x_max":1088,"o":"m 518 0 l 315 0 l 97 753 l 309 753 l 406 422 l 486 753 l 699 753 l 778 422 l 875 753 l 1088 753 l 869 0 l 665 0 l 591 319 l 518 0 z "},"x":{"ha":1013,"x_min":102,"x_max":907,"o":"m 847 754 l 628 421 l 907 0 l 667 0 l 505 237 l 343 0 l 102 0 l 380 421 l 161 754 l 397 754 l 504 597 l 614 754 l 847 754 z "},"y":{"ha":982,"x_min":83,"x_max":895,"o":"m 685 755 l 895 755 l 513 -271 l 301 -271 l 404 0 l 83 755 l 298 755 l 507 286 l 685 755 z "},"z":{"ha":899,"x_min":110,"x_max":785,"o":"m 783 593 l 425 200 l 785 200 l 785 0 l 110 0 l 110 161 l 473 558 l 129 558 l 129 755 l 783 755 l 783 593 z "},">":{"ha":2779,"x_min":83,"x_max":2464,"o":"m 261 422 l 762 422 l 762 654 q 776 695 762 673 q 817 717 790 717 l 1060 717 l 1095 986 l 1136 986 q 1106 1023 1117 1001 q 1095 1065 1095 1045 q 1113 1121 1095 1093 q 1165 1160 1132 1150 q 1215 1166 1190 1166 q 1278 1153 1242 1166 q 1418 1128 1335 1128 q 1463 1134 1444 1130 q 1506 1146 1483 1139 q 1540 1157 1529 1154 q 1561 1162 1550 1161 q 1700 1126 1605 1162 q 1741 1109 1712 1121 q 1802 1090 1769 1098 q 1867 1082 1835 1082 q 1911 1095 1889 1085 q 1959 1121 1932 1105 q 2005 1146 1986 1137 q 2043 1154 2024 1154 q 2069 1152 2054 1154 q 2106 1144 2083 1149 q 2151 1137 2129 1140 q 2190 1133 2172 1133 q 2218 1135 2207 1133 q 2256 1142 2230 1136 q 2294 1151 2281 1148 q 2321 1153 2306 1153 q 2417 1128 2370 1153 q 2464 1051 2464 1103 q 2411 945 2464 963 q 2371 939 2399 941 q 2314 936 2343 938 q 2266 929 2285 934 q 2235 910 2260 927 q 2185 883 2209 894 q 2128 872 2161 872 q 2092 878 2110 872 q 2054 894 2075 883 q 2017 912 2032 905 q 1978 922 2001 919 q 1915 928 1947 928 q 1881 927 1893 928 q 1853 926 1868 927 q 1821 928 1832 926 q 1758 955 1798 930 q 1680 1002 1718 979 q 1611 1028 1641 1025 q 1551 1019 1577 1028 q 1511 1008 1525 1010 q 1447 1018 1489 1008 q 1375 1028 1404 1028 q 1325 1019 1354 1028 q 1305 1011 1312 1015 q 1296 1003 1299 1008 q 1294 995 1294 998 q 1293 986 1293 992 l 1350 986 l 1314 717 l 1588 717 q 1664 642 1658 717 l 1664 422 l 2268 422 q 2231 258 2259 338 q 2155 118 2203 179 q 2184 107 2168 114 q 2219 96 2201 100 q 2257 92 2238 92 q 2294 98 2275 92 q 2331 111 2314 104 q 2367 123 2348 118 q 2408 127 2385 127 q 2437 126 2420 127 q 2461 125 2454 125 l 2461 57 q 2437 59 2453 58 q 2408 60 2421 60 q 2367 55 2385 60 q 2331 43 2348 50 q 2294 30 2314 37 q 2257 24 2275 24 q 2203 33 2229 24 q 2151 51 2177 42 q 2097 60 2125 60 q 2056 55 2074 60 q 2021 43 2039 50 q 1984 30 2004 37 q 1947 24 1965 24 q 1892 33 1919 24 q 1840 51 1866 42 q 1788 60 1814 60 q 1746 55 1765 60 q 1711 43 1728 50 q 1674 30 1693 37 q 1636 24 1654 24 q 1582 33 1608 24 q 1530 51 1556 42 q 1476 60 1503 60 q 1435 55 1453 60 q 1400 43 1417 50 q 1363 30 1383 37 q 1325 24 1343 24 q 1271 33 1297 24 q 1219 51 1244 42 q 1165 60 1194 60 q 1124 55 1142 60 q 1089 43 1107 50 q 1053 30 1072 37 q 1015 24 1033 24 q 961 33 987 24 q 909 51 935 42 q 856 60 883 60 q 814 55 833 60 q 779 43 796 50 q 742 30 762 37 q 704 24 722 24 q 650 33 676 24 q 598 51 624 42 q 545 60 572 60 q 504 55 522 60 q 469 43 486 50 q 432 30 452 37 q 395 24 412 24 q 349 31 372 24 q 308 44 326 37 q 274 55 290 51 q 235 60 258 60 q 198 55 214 60 q 166 44 181 50 q 132 31 151 37 q 100 24 114 24 l 83 24 l 83 92 l 100 92 q 133 98 115 92 q 167 112 151 104 q 199 123 183 119 q 235 127 214 127 q 274 123 258 127 q 308 112 290 119 q 349 98 326 105 q 395 92 372 92 q 468 111 416 92 l 261 422 z "},"<":{"ha":2811,"x_min":83,"x_max":2460,"o":"m 624 314 l 668 530 l 798 530 l 811 852 l 859 851 l 850 530 l 974 530 l 1000 444 l 1177 444 q 1196 536 1184 480 q 1211 603 1208 591 q 1246 628 1216 628 q 1429 619 1270 628 q 1454 611 1447 618 q 1463 593 1460 604 q 1469 549 1464 583 q 1478 487 1474 516 q 1485 444 1482 458 l 1846 444 q 1869 439 1859 444 q 1883 428 1879 435 q 1889 415 1887 421 q 1894 396 1891 408 q 1906 366 1900 380 q 1915 341 1911 353 q 1922 325 1920 330 l 2029 326 l 2060 779 l 2108 777 l 2079 326 q 2246 328 2216 326 q 2264 324 2258 328 q 2275 315 2271 320 q 2281 299 2278 309 q 2286 283 2284 290 q 2302 239 2293 267 q 2315 195 2311 211 l 2460 197 l 2446 49 l 2300 8 l 195 8 l 83 332 l 624 314 z "},"=":{"ha":1820,"x_min":182,"x_max":1521,"o":"m 518 568 l 631 374 l 962 562 l 1072 374 l 1407 571 l 1521 370 l 1521 -60 l 182 -60 l 182 366 l 518 568 m 317 52 l 528 52 l 528 271 l 317 271 l 317 52 m 791 1089 l 812 517 l 684 444 l 711 1089 l 791 1089 m 791 1132 l 888 1197 l 1059 1179 l 1121 1236 q 1200 1240 1146 1238 q 1280 1243 1254 1241 l 1365 1286 l 1471 1286 l 1520 1242 l 1472 1193 l 1381 1215 l 1270 1145 l 1146 1160 l 1050 1107 l 922 1149 l 787 1108 l 713 1108 l 713 1132 l 791 1132 m 1171 924 l 1190 484 l 1071 414 l 1092 924 l 1171 924 m 1171 961 l 1289 1096 l 1353 1096 l 1401 1145 l 1467 1145 l 1520 1096 l 1482 1055 l 1393 1055 l 1349 1013 l 1271 1013 l 1174 943 l 1092 943 l 1092 961 l 1171 961 m 739 52 l 950 52 l 950 271 l 739 271 l 739 52 m 1158 52 l 1369 52 l 1369 271 l 1158 271 l 1158 52 z "},"+":{"ha":1761,"x_min":139,"x_max":1453,"o":"m 427 515 q 393 513 404 513 q 267 547 326 513 q 173 640 208 581 q 139 766 139 699 q 169 884 139 830 q 249 974 198 938 q 235 1057 235 1011 q 268 1180 235 1123 q 357 1270 300 1236 q 481 1303 414 1303 q 604 1270 547 1303 q 693 1180 661 1236 q 726 1057 726 1123 q 713 974 726 1012 q 784 885 758 937 q 810 772 810 832 q 775 643 810 702 q 681 548 741 583 q 551 513 622 513 q 511 517 530 513 l 530 -54 l 383 -54 l 427 515 m 817 261 q 733 295 768 261 q 697 375 697 329 q 712 433 697 406 q 753 474 727 459 q 811 489 780 489 q 868 474 842 489 q 910 433 895 459 q 925 375 925 407 q 908 317 925 344 q 867 275 892 290 l 928 293 l 1068 109 q 1111 165 1086 132 q 1156 220 1137 198 q 1186 242 1166 233 q 1225 252 1206 252 q 1273 239 1251 252 q 1307 204 1295 226 q 1340 127 1319 186 q 1372 32 1360 68 l 1453 32 l 1453 -54 l 997 -54 l 811 175 l 733 18 l 823 18 l 823 -54 l 607 -54 l 755 243 l 817 261 m 1225 154 l 1137 32 l 1271 32 l 1225 154 z "},"\\":{"ha":1760,"x_min":110,"x_max":1478,"o":"m 175 530 l 138 711 l 195 711 l 307 553 q 519 583 405 579 l 724 583 l 724 734 l 533 1168 l 657 1168 l 1088 583 l 1246 583 q 1351 577 1312 583 q 1418 559 1390 572 q 1460 537 1443 551 q 1478 515 1478 523 q 1461 495 1478 509 q 1418 471 1444 481 q 1346 453 1387 458 q 1246 447 1305 447 l 1088 447 l 657 -138 l 533 -138 l 724 296 l 724 447 l 519 447 q 441 453 471 450 q 370 464 411 456 q 307 478 330 472 l 195 319 l 138 319 l 175 500 l 110 515 l 175 530 z "},"|":{"ha":1921,"x_min":443,"x_max":1811,"o":"m 1746 486 l 1784 306 l 1727 306 l 1614 464 q 1401 433 1516 437 l 1197 433 l 1197 282 l 1388 -151 l 1264 -151 l 833 433 l 675 433 q 503 457 562 433 q 461 480 479 466 q 443 501 443 494 q 462 523 443 508 q 503 546 481 538 q 675 570 564 570 l 833 570 l 1264 1154 l 1388 1154 l 1197 721 l 1197 570 l 1401 570 q 1614 539 1511 566 l 1727 697 l 1784 697 l 1746 517 l 1811 501 l 1746 486 z "},".":{"ha":669,"x_min":110,"x_max":353,"o":"m 110 115 q 146 201 110 165 q 231 237 182 237 q 292 221 263 237 q 336 176 320 205 q 353 115 353 148 q 336 55 353 83 q 292 10 320 26 q 231 -7 264 -7 q 170 10 198 -7 q 126 55 142 26 q 110 115 110 83 z "},"/":{"ha":936,"x_min":0,"x_max":936,"o":"m 720 1108 l 936 1108 l 218 -54 l 0 -54 l 720 1108 z "},"!":{"ha":522,"x_min":102,"x_max":336,"o":"m 207 567 l 102 567 l 102 675 l 126 681 q 171 701 153 688 q 220 760 220 736 l 336 760 l 336 0 l 207 0 l 207 567 z "},"@":{"ha":848,"x_min":113,"x_max":725,"o":"m 269 347 q 340 394 296 370 q 428 433 385 418 q 518 463 480 450 q 571 492 557 475 q 585 543 585 508 q 535 609 585 589 q 412 629 486 629 q 297 604 357 628 q 204 543 237 579 l 114 644 q 158 681 126 660 q 231 722 191 703 q 317 753 271 741 q 410 766 363 766 q 673 672 598 766 q 724 532 724 611 q 690 415 724 456 q 597 342 656 374 q 502 308 578 332 q 395 264 426 285 q 322 198 354 238 q 282 134 290 159 l 725 134 l 725 0 l 113 0 q 126 117 113 57 q 178 240 140 178 q 269 347 216 302 z "},"#":{"ha":852,"x_min":113,"x_max":729,"o":"m 265 568 l 168 661 q 200 691 176 671 q 245 722 224 710 q 424 770 334 770 q 635 693 562 770 q 696 559 696 628 q 681 469 696 506 q 653 415 666 431 q 729 239 729 339 q 644 72 729 144 q 424 -4 555 -2 q 191 77 285 -2 q 113 176 153 107 l 231 249 q 263 205 237 233 q 332 157 290 178 q 424 136 374 136 q 542 172 486 136 q 585 244 585 199 q 504 339 585 321 q 452 347 471 346 q 424 349 433 349 l 424 476 l 488 476 q 542 498 528 481 q 555 557 555 514 q 523 608 555 581 q 424 636 490 636 q 265 568 338 636 z "},"$":{"ha":882,"x_min":85,"x_max":786,"o":"m 85 151 l 85 268 l 533 760 l 671 760 l 671 279 l 786 279 l 786 151 l 673 151 l 673 0 l 536 0 l 536 151 l 85 151 m 278 282 l 538 282 l 538 562 l 278 282 z "},"%":{"ha":818,"x_min":85,"x_max":694,"o":"m 239 357 l 115 397 l 132 760 l 624 760 l 624 631 l 262 631 l 257 503 q 412 533 353 533 q 612 460 539 533 q 694 264 694 376 q 606 65 694 154 q 424 -5 532 -5 q 184 31 288 -3 q 85 75 113 54 l 144 200 q 254 157 172 182 q 400 131 337 131 q 497 153 462 131 q 546 206 533 175 q 558 269 558 237 q 544 326 558 296 q 498 376 529 355 q 424 397 468 397 q 331 388 366 397 q 239 357 296 379 z "},"^":{"ha":833,"x_min":102,"x_max":710,"o":"m 710 231 q 652 77 710 141 q 418 -7 574 -7 q 172 86 255 -7 q 102 301 102 165 q 154 509 102 408 q 245 632 191 581 q 411 734 319 703 q 543 760 488 760 l 585 760 l 585 631 q 518 625 557 631 q 406 590 451 617 q 297 493 337 551 q 279 454 290 483 q 345 468 298 461 q 428 475 389 475 q 603 431 532 475 q 710 231 710 362 m 574 232 q 514 319 574 295 q 410 335 471 335 q 342 327 372 335 q 293 301 313 318 q 260 231 260 273 q 290 164 260 190 q 410 129 332 129 q 536 158 496 129 q 574 232 574 186 z "},"&":{"ha":785,"x_min":85,"x_max":694,"o":"m 85 623 l 85 760 l 694 760 l 694 639 q 627 546 693 639 q 503 322 551 441 q 449 93 460 214 l 449 0 l 311 0 q 313 106 311 82 q 354 338 319 229 q 388 424 372 391 q 441 522 404 456 q 484 588 467 564 q 509 623 500 611 l 85 623 z "},"*":{"ha":857,"x_min":113,"x_max":733,"o":"m 424 -7 q 182 79 266 -7 q 113 252 113 151 q 158 389 113 325 q 181 416 172 407 q 204 435 190 425 q 175 471 199 439 q 147 559 147 512 q 199 690 147 637 q 424 765 270 765 q 648 690 576 765 q 700 561 700 638 q 671 472 700 518 q 650 444 659 453 q 642 435 642 435 q 688 385 668 413 q 733 252 733 321 q 663 79 733 152 q 424 -7 576 -7 m 424 132 q 566 178 517 132 q 600 245 600 211 q 567 323 600 289 q 425 368 520 368 q 281 323 328 368 q 245 245 245 290 q 281 178 245 211 q 424 132 330 132 m 424 497 q 542 522 505 497 q 568 564 568 542 q 542 604 568 585 q 424 631 504 631 q 306 604 341 631 q 279 564 279 586 q 304 522 279 541 q 424 497 340 497 z "},"(":{"ha":802,"x_min":85,"x_max":694,"o":"m 85 526 q 143 682 85 616 q 376 764 220 764 q 624 672 543 764 q 694 457 694 592 q 642 250 694 352 q 550 126 606 179 q 385 24 478 57 q 253 -3 305 -3 l 211 -1 l 212 127 q 278 134 241 127 q 390 168 349 144 q 498 264 458 207 q 518 304 512 287 q 452 290 488 294 q 368 283 406 283 q 193 328 263 283 q 85 526 85 396 m 222 526 q 282 439 222 463 q 387 422 328 422 q 503 456 463 422 q 538 526 538 486 q 505 595 538 566 q 385 629 464 629 q 260 600 300 629 q 222 526 222 573 z "},")":{"ha":843,"x_min":102,"x_max":736,"o":"m 102 380 q 197 668 102 562 q 418 766 288 766 q 539 742 486 766 q 639 668 593 718 q 736 380 736 561 q 640 89 736 198 q 418 -7 551 -7 q 197 89 287 -7 q 102 380 102 197 m 600 379 q 538 575 600 510 q 418 627 487 627 q 354 614 382 627 q 298 575 326 602 q 236 379 236 507 q 298 183 236 248 q 419 132 347 132 q 539 183 488 132 q 600 379 600 249 z "},"":{"ha":1710,"x_min":182,"x_max":1528,"o":"m 1528 0 l 977 47 q 917 20 962 37 q 860 12 895 12 q 804 20 826 12 q 734 47 762 33 l 182 0 l 182 869 l 294 869 l 340 964 q 481 999 429 994 q 606 1011 557 1011 q 762 981 703 1011 q 851 884 819 955 q 942 979 881 951 q 1108 1011 1009 1011 q 1223 999 1149 1011 q 1362 964 1278 993 l 1406 873 l 1528 869 l 1528 0 m 385 264 q 510 288 458 283 q 606 297 558 297 q 812 237 741 297 q 838 214 827 224 l 838 800 q 783 930 838 886 q 619 977 729 977 q 503 966 568 977 q 385 940 448 958 l 385 264 m 1325 940 q 1200 966 1256 958 q 1093 977 1135 977 q 917 928 979 977 q 872 798 872 891 l 872 214 q 896 237 880 224 q 962 279 929 267 q 1096 297 1008 297 q 1152 295 1122 297 q 1208 288 1181 293 q 1325 264 1257 280 l 1325 940 m 1419 149 l 1419 787 l 1360 901 l 1360 261 l 1419 149 m 1305 237 q 1206 253 1242 250 q 1093 261 1143 261 q 950 237 1003 261 q 892 191 910 221 q 872 119 872 163 q 937 154 920 125 l 1398 119 l 1340 231 q 1316 236 1322 235 q 1305 237 1311 237 m 406 237 q 372 231 393 236 l 310 119 l 771 154 q 838 119 798 125 q 814 191 831 161 q 778 229 804 212 q 772 232 777 229 q 760 237 766 235 q 614 261 702 261 q 501 256 577 261 q 448 246 474 251 q 406 237 422 241 m 349 261 l 349 904 l 289 794 l 289 144 l 349 261 m 253 800 l 278 844 l 218 842 l 218 37 l 745 77 q 804 56 787 58 q 860 47 831 47 q 911 53 878 47 q 965 77 928 58 l 1492 37 l 1492 847 l 1419 851 l 1455 800 l 1455 89 l 947 119 q 856 94 907 94 q 762 119 802 94 l 253 89 l 253 800 m 1238 856 l 1238 843 q 1151 780 1183 822 q 1114 673 1120 737 q 1276 798 1233 682 l 1291 798 l 1291 525 l 1276 525 q 1114 646 1235 635 q 1232 478 1124 524 l 1232 464 l 968 464 l 968 478 q 1086 646 1071 519 q 920 525 963 635 l 907 525 l 907 798 l 920 798 q 1086 673 966 682 q 961 843 1071 804 l 961 856 l 1238 856 z "}," ":{"ha":464,"x_min":0,"x_max":0,"o":""}}}
